<svg xmlns="http://www.w3.org/2000/svg" xmlns:xlink="http://www.w3.org/1999/xlink" viewBox="0 0 20 20" version="1.1" x="0px" y="0px"><title>Menu Burder</title><desc>Created with Sketch.</desc><g stroke="none" stroke-width="1" fill="none" fill-rule="evenodd"><g transform="translate(-20.000000, -20.000000)" fill="#000000"><g transform="translate(20.000000, 20.000000)"><path d="M2,15 C2,14.4477153 2.44463086,14 3.00087166,14 L16.9991283,14 C17.5518945,14 18,14.4438648 18,15 C18,15.5522847 17.5553691,16 16.9991283,16 L3.00087166,16 C2.4481055,16 2,15.5561352 2,15 Z M2,10 C2,9.44771525 2.44463086,9 3.00087166,9 L16.9991283,9 C17.5518945,9 18,9.44386482 18,10 C18,10.5522847 17.5553691,11 16.9991283,11 L3.00087166,11 C2.4481055,11 2,10.5561352 2,10 Z M2,5 C2,4.44771525 2.44463086,4 3.00087166,4 L16.9991283,4 C17.5518945,4 18,4.44386482 18,5 C18,5.55228475 17.5553691,6 16.9991283,6 L3.00087166,6 C2.4481055,6 2,5.55613518 2,5 Z"/></g></g></g><text x="0" y="35" fill="#000000" font-size="5px" font-weight="bold" font-family="'Helvetica Neue', Helvetica, Arial-Unicode, Arial, Sans-serif">Created by K Ξ L L Ξ R</text><text x="0" y="40" fill="#000000" font-size="5px" font-weight="bold" font-family="'Helvetica Neue', Helvetica, Arial-Unicode, Arial, Sans-serif">from the Noun Project</text></svg>
